<?xml version="1.0" encoding="UTF-8" standalone="no"?>
<!DOCTYPE svg PUBLIC "-//W3C//DTD SVG 1.1//EN"
 "http://www.w3.org/Graphics/SVG/1.1/DTD/svg11.dtd">
<!-- Generated by graphviz version 2.50.0 (20240430.0900)
 -->
<!-- Title: snakemake_dag Pages: 1 -->
<svg width="755pt" height="1412pt"
 viewBox="0.00 0.00 754.50 1412.00" xmlns="http://www.w3.org/2000/svg" xmlns:xlink="http://www.w3.org/1999/xlink">
<g id="graph0" class="graph" transform="scale(1 1) rotate(0) translate(4 1408)">
<title>snakemake_dag</title>
<polygon fill="white" stroke="transparent" points="-4,4 -4,-1408 750.5,-1408 750.5,4 -4,4"/>
<!-- 0 -->
<g id="node1" class="node">
<title>0</title>
<path fill="none" stroke="#d8a456" stroke-width="2" d="M326.5,-36C326.5,-36 296.5,-36 296.5,-36 290.5,-36 284.5,-30 284.5,-24 284.5,-24 284.5,-12 284.5,-12 284.5,-6 290.5,0 296.5,0 296.5,0 326.5,0 326.5,0 332.5,0 338.5,-6 338.5,-12 338.5,-12 338.5,-24 338.5,-24 338.5,-30 332.5,-36 326.5,-36"/>
<text text-anchor="middle" x="311.5" y="-15.5" font-family="sans" font-size="10.00">all</text>
</g>
<!-- 1 -->
<g id="node2" class="node">
<title>1</title>
<path fill="none" stroke="#80d856" stroke-width="2" d="M169,-756C169,-756 78,-756 78,-756 72,-756 66,-750 66,-744 66,-744 66,-732 66,-732 66,-726 72,-720 78,-720 78,-720 169,-720 169,-720 175,-720 181,-726 181,-732 181,-732 181,-744 181,-744 181,-750 175,-756 169,-756"/>
<text text-anchor="middle" x="123.5" y="-735.5" font-family="sans" font-size="10.00">mageck_count_bam</text>
</g>
<!-- 1&#45;&gt;0 -->
<g id="edge4" class="edge">
<title>1&#45;&gt;0</title>
<path fill="none" stroke="grey" stroke-width="2" d="M101.49,-719.88C72.87,-695.5 26.5,-647.84 26.5,-595 26.5,-595 26.5,-595 26.5,-161 26.5,-115.85 39.4,-99.12 75.5,-72 134.59,-27.62 223.96,-19.21 274.06,-18.29"/>
<polygon fill="grey" stroke="grey" stroke-width="2" points="274.16,-21.79 284.13,-18.2 274.1,-14.79 274.16,-21.79"/>
</g>
<!-- 13 -->
<g id="node14" class="node">
<title>13</title>
<path fill="none" stroke="#b6d856" stroke-width="2" d="M273.5,-684C273.5,-684 211.5,-684 211.5,-684 205.5,-684 199.5,-678 199.5,-672 199.5,-672 199.5,-660 199.5,-660 199.5,-654 205.5,-648 211.5,-648 211.5,-648 273.5,-648 273.5,-648 279.5,-648 285.5,-654 285.5,-660 285.5,-660 285.5,-672 285.5,-672 285.5,-678 279.5,-684 273.5,-684"/>
<text text-anchor="middle" x="242.5" y="-663.5" font-family="sans" font-size="10.00">remove_zeros</text>
</g>
<!-- 1&#45;&gt;13 -->
<g id="edge26" class="edge">
<title>1&#45;&gt;13</title>
<path fill="none" stroke="grey" stroke-width="2" d="M152.61,-719.88C168.17,-710.72 187.52,-699.34 204.28,-689.48"/>
<polygon fill="grey" stroke="grey" stroke-width="2" points="206.43,-692.28 213.28,-684.19 202.88,-686.24 206.43,-692.28"/>
</g>
<!-- 14 -->
<g id="node15" class="node">
<title>14</title>
<path fill="none" stroke="#56a9d8" stroke-width="2" d="M197,-612C197,-612 72,-612 72,-612 66,-612 60,-606 60,-600 60,-600 60,-588 60,-588 60,-582 66,-576 72,-576 72,-576 197,-576 197,-576 203,-576 209,-582 209,-588 209,-588 209,-600 209,-600 209,-606 203,-612 197,-612"/>
<text text-anchor="middle" x="134.5" y="-591.5" font-family="sans" font-size="10.00">descriptive_statistics_plots</text>
</g>
<!-- 1&#45;&gt;14 -->
<g id="edge29" class="edge">
<title>1&#45;&gt;14</title>
<path fill="none" stroke="grey" stroke-width="2" d="M124.83,-719.87C126.7,-695.67 130.15,-651.21 132.38,-622.39"/>
<polygon fill="grey" stroke="grey" stroke-width="2" points="135.89,-622.43 133.17,-612.19 128.91,-621.89 135.89,-622.43"/>
</g>
<!-- 2 -->
<g id="node3" class="node">
<title>2</title>
<path fill="none" stroke="#56d8d0" stroke-width="2" d="M151.5,-828C151.5,-828 95.5,-828 95.5,-828 89.5,-828 83.5,-822 83.5,-816 83.5,-816 83.5,-804 83.5,-804 83.5,-798 89.5,-792 95.5,-792 95.5,-792 151.5,-792 151.5,-792 157.5,-792 163.5,-798 163.5,-804 163.5,-804 163.5,-816 163.5,-816 163.5,-822 157.5,-828 151.5,-828"/>
<text text-anchor="middle" x="123.5" y="-807.5" font-family="sans" font-size="10.00">sam_to_bam</text>
</g>
<!-- 2&#45;&gt;1 -->
<g id="edge14" class="edge">
<title>2&#45;&gt;1</title>
<path fill="none" stroke="grey" stroke-width="2" d="M123.5,-791.7C123.5,-783.98 123.5,-774.71 123.5,-766.11"/>
<polygon fill="grey" stroke="grey" stroke-width="2" points="127,-766.1 123.5,-756.1 120,-766.1 127,-766.1"/>
</g>
<!-- 3 -->
<g id="node4" class="node">
<title>3</title>
<path fill="none" stroke="#56b9d8" stroke-width="2" d="M148,-900C148,-900 99,-900 99,-900 93,-900 87,-894 87,-888 87,-888 87,-876 87,-876 87,-870 93,-864 99,-864 99,-864 148,-864 148,-864 154,-864 160,-870 160,-876 160,-876 160,-888 160,-888 160,-894 154,-900 148,-900"/>
<text text-anchor="middle" x="123.5" y="-879.5" font-family="sans" font-size="10.00">align_reads</text>
</g>
<!-- 3&#45;&gt;2 -->
<g id="edge15" class="edge">
<title>3&#45;&gt;2</title>
<path fill="none" stroke="grey" stroke-width="2" d="M123.5,-863.7C123.5,-855.98 123.5,-846.71 123.5,-838.11"/>
<polygon fill="grey" stroke="grey" stroke-width="2" points="127,-838.1 123.5,-828.1 120,-838.1 127,-838.1"/>
</g>
<!-- 4 -->
<g id="node5" class="node">
<title>4</title>
<path fill="none" stroke="#d8cb56" stroke-width="2" d="M86.5,-972C86.5,-972 56.5,-972 56.5,-972 50.5,-972 44.5,-966 44.5,-960 44.5,-960 44.5,-948 44.5,-948 44.5,-942 50.5,-936 56.5,-936 56.5,-936 86.5,-936 86.5,-936 92.5,-936 98.5,-942 98.5,-948 98.5,-948 98.5,-960 98.5,-960 98.5,-966 92.5,-972 86.5,-972"/>
<text text-anchor="middle" x="71.5" y="-951.5" font-family="sans" font-size="10.00">trim_all</text>
</g>
<!-- 4&#45;&gt;3 -->
<g id="edge16" class="edge">
<title>4&#45;&gt;3</title>
<path fill="none" stroke="grey" stroke-width="2" d="M84.35,-935.7C90.53,-927.39 98.04,-917.28 104.82,-908.14"/>
<polygon fill="grey" stroke="grey" stroke-width="2" points="107.64,-910.22 110.79,-900.1 102.02,-906.04 107.64,-910.22"/>
</g>
<!-- 5 -->
<g id="node6" class="node">
<title>5</title>
<path fill="none" stroke="#566bd8" stroke-width="2" d="M114,-1044C114,-1044 29,-1044 29,-1044 23,-1044 17,-1038 17,-1032 17,-1032 17,-1020 17,-1020 17,-1014 23,-1008 29,-1008 29,-1008 114,-1008 114,-1008 120,-1008 126,-1014 126,-1020 126,-1020 126,-1032 126,-1032 126,-1038 120,-1044 114,-1044"/>
<text text-anchor="middle" x="71.5" y="-1023.5" font-family="sans" font-size="10.00">combine_amplicon</text>
</g>
<!-- 5&#45;&gt;4 -->
<g id="edge18" class="edge">
<title>5&#45;&gt;4</title>
<path fill="none" stroke="grey" stroke-width="2" d="M71.5,-1007.7C71.5,-999.98 71.5,-990.71 71.5,-982.11"/>
<polygon fill="grey" stroke="grey" stroke-width="2" points="75,-982.1 71.5,-972.1 68,-982.1 75,-982.1"/>
</g>
<!-- 6 -->
<g id="node7" class="node">
<title>6</title>
<path fill="none" stroke="#8fd856" stroke-width="2" d="M93.5,-1188C93.5,-1188 49.5,-1188 49.5,-1188 43.5,-1188 37.5,-1182 37.5,-1176 37.5,-1176 37.5,-1164 37.5,-1164 37.5,-1158 43.5,-1152 49.5,-1152 49.5,-1152 93.5,-1152 93.5,-1152 99.5,-1152 105.5,-1158 105.5,-1164 105.5,-1164 105.5,-1176 105.5,-1176 105.5,-1182 99.5,-1188 93.5,-1188"/>
<text text-anchor="middle" x="71.5" y="-1167.5" font-family="sans" font-size="10.00">fastq_grep</text>
</g>
<!-- 6&#45;&gt;5 -->
<g id="edge20" class="edge">
<title>6&#45;&gt;5</title>
<path fill="none" stroke="grey" stroke-width="2" d="M68.25,-1151.89C66.45,-1141.54 64.41,-1128.06 63.5,-1116 62.3,-1100.04 62.3,-1095.96 63.5,-1080 64.14,-1071.52 65.34,-1062.34 66.62,-1054.04"/>
<polygon fill="grey" stroke="grey" stroke-width="2" points="70.08,-1054.55 68.25,-1044.11 63.18,-1053.41 70.08,-1054.55"/>
</g>
<!-- 10 -->
<g id="node11" class="node">
<title>10</title>
<path fill="none" stroke="#d85656" stroke-width="2" d="M114.5,-1116C114.5,-1116 84.5,-1116 84.5,-1116 78.5,-1116 72.5,-1110 72.5,-1104 72.5,-1104 72.5,-1092 72.5,-1092 72.5,-1086 78.5,-1080 84.5,-1080 84.5,-1080 114.5,-1080 114.5,-1080 120.5,-1080 126.5,-1086 126.5,-1092 126.5,-1092 126.5,-1104 126.5,-1104 126.5,-1110 120.5,-1116 114.5,-1116"/>
<text text-anchor="middle" x="99.5" y="-1095.5" font-family="sans" font-size="10.00">bioawk</text>
</g>
<!-- 6&#45;&gt;10 -->
<g id="edge24" class="edge">
<title>6&#45;&gt;10</title>
<path fill="none" stroke="grey" stroke-width="2" d="M78.42,-1151.7C81.57,-1143.81 85.38,-1134.3 88.88,-1125.55"/>
<polygon fill="grey" stroke="grey" stroke-width="2" points="92.19,-1126.69 92.66,-1116.1 85.69,-1124.09 92.19,-1126.69"/>
</g>
<!-- 7 -->
<g id="node8" class="node">
<title>7</title>
<path fill="none" stroke="#59d856" stroke-width="2" d="M131,-1260C131,-1260 12,-1260 12,-1260 6,-1260 0,-1254 0,-1248 0,-1248 0,-1236 0,-1236 0,-1230 6,-1224 12,-1224 12,-1224 131,-1224 131,-1224 137,-1224 143,-1230 143,-1236 143,-1236 143,-1248 143,-1248 143,-1254 137,-1260 131,-1260"/>
<text text-anchor="middle" x="71.5" y="-1239.5" font-family="sans" font-size="10.00">merge_overlapping_reads</text>
</g>
<!-- 7&#45;&gt;6 -->
<g id="edge21" class="edge">
<title>7&#45;&gt;6</title>
<path fill="none" stroke="grey" stroke-width="2" d="M71.5,-1223.7C71.5,-1215.98 71.5,-1206.71 71.5,-1198.11"/>
<polygon fill="grey" stroke="grey" stroke-width="2" points="75,-1198.1 71.5,-1188.1 68,-1198.1 75,-1198.1"/>
</g>
<!-- 8 -->
<g id="node9" class="node">
<title>8</title>
<path fill="none" stroke="#5692d8" stroke-width="2" d="M107.5,-1332C107.5,-1332 35.5,-1332 35.5,-1332 29.5,-1332 23.5,-1326 23.5,-1320 23.5,-1320 23.5,-1308 23.5,-1308 23.5,-1302 29.5,-1296 35.5,-1296 35.5,-1296 107.5,-1296 107.5,-1296 113.5,-1296 119.5,-1302 119.5,-1308 119.5,-1308 119.5,-1320 119.5,-1320 119.5,-1326 113.5,-1332 107.5,-1332"/>
<text text-anchor="middle" x="71.5" y="-1311.5" font-family="sans" font-size="10.00">merge_flowcells</text>
</g>
<!-- 8&#45;&gt;7 -->
<g id="edge22" class="edge">
<title>8&#45;&gt;7</title>
<path fill="none" stroke="grey" stroke-width="2" d="M71.5,-1295.7C71.5,-1287.98 71.5,-1278.71 71.5,-1270.11"/>
<polygon fill="grey" stroke="grey" stroke-width="2" points="75,-1270.1 71.5,-1260.1 68,-1270.1 75,-1270.1"/>
</g>
<!-- 9 -->
<g id="node10" class="node">
<title>9</title>
<path fill="none" stroke="#56d87b" stroke-width="2" d="M105,-1404C105,-1404 38,-1404 38,-1404 32,-1404 26,-1398 26,-1392 26,-1392 26,-1380 26,-1380 26,-1374 32,-1368 38,-1368 38,-1368 105,-1368 105,-1368 111,-1368 117,-1374 117,-1380 117,-1380 117,-1392 117,-1392 117,-1398 111,-1404 105,-1404"/>
<text text-anchor="middle" x="71.5" y="-1383.5" font-family="sans" font-size="10.00">rename_files_0</text>
</g>
<!-- 9&#45;&gt;8 -->
<g id="edge23" class="edge">
<title>9&#45;&gt;8</title>
<path fill="none" stroke="grey" stroke-width="2" d="M71.5,-1367.7C71.5,-1359.98 71.5,-1350.71 71.5,-1342.11"/>
<polygon fill="grey" stroke="grey" stroke-width="2" points="75,-1342.1 71.5,-1332.1 68,-1342.1 75,-1342.1"/>
</g>
<!-- 10&#45;&gt;5 -->
<g id="edge19" class="edge">
<title>10&#45;&gt;5</title>
<path fill="none" stroke="grey" stroke-width="2" d="M92.58,-1079.7C89.43,-1071.81 85.62,-1062.3 82.12,-1053.55"/>
<polygon fill="grey" stroke="grey" stroke-width="2" points="85.31,-1052.09 78.34,-1044.1 78.81,-1054.69 85.31,-1052.09"/>
</g>
<!-- 11 -->
<g id="node12" class="node">
<title>11</title>
<path fill="none" stroke="#56d86b" stroke-width="2" d="M222.5,-972C222.5,-972 128.5,-972 128.5,-972 122.5,-972 116.5,-966 116.5,-960 116.5,-960 116.5,-948 116.5,-948 116.5,-942 122.5,-936 128.5,-936 128.5,-936 222.5,-936 222.5,-936 228.5,-936 234.5,-942 234.5,-948 234.5,-948 234.5,-960 234.5,-960 234.5,-966 228.5,-972 222.5,-972"/>
<text text-anchor="middle" x="175.5" y="-951.5" font-family="sans" font-size="10.00">create_bowtie_index</text>
</g>
<!-- 11&#45;&gt;3 -->
<g id="edge17" class="edge">
<title>11&#45;&gt;3</title>
<path fill="none" stroke="grey" stroke-width="2" d="M162.65,-935.7C156.47,-927.39 148.96,-917.28 142.18,-908.14"/>
<polygon fill="grey" stroke="grey" stroke-width="2" points="144.98,-906.04 136.21,-900.1 139.36,-910.22 144.98,-906.04"/>
</g>
<!-- 12 -->
<g id="node13" class="node">
<title>12</title>
<path fill="none" stroke="#56d8b9" stroke-width="2" d="M275.5,-756C275.5,-756 211.5,-756 211.5,-756 205.5,-756 199.5,-750 199.5,-744 199.5,-744 199.5,-732 199.5,-732 199.5,-726 205.5,-720 211.5,-720 211.5,-720 275.5,-720 275.5,-720 281.5,-720 287.5,-726 287.5,-732 287.5,-732 287.5,-744 287.5,-744 287.5,-750 281.5,-756 275.5,-756"/>
<text text-anchor="middle" x="243.5" y="-735.5" font-family="sans" font-size="10.00">mageck_count</text>
</g>
<!-- 12&#45;&gt;0 -->
<g id="edge12" class="edge">
<title>12&#45;&gt;0</title>
<path fill="none" stroke="grey" stroke-width="2" d="M287.7,-734.02C410.44,-724.55 746.5,-689.94 746.5,-595 746.5,-595 746.5,-595 746.5,-161 746.5,-103.47 704.15,-97.34 652.5,-72 599.46,-45.98 425.75,-28.59 348.78,-21.98"/>
<polygon fill="grey" stroke="grey" stroke-width="2" points="348.85,-18.48 338.59,-21.12 348.26,-25.45 348.85,-18.48"/>
</g>
<!-- 12&#45;&gt;13 -->
<g id="edge25" class="edge">
<title>12&#45;&gt;13</title>
<path fill="none" stroke="grey" stroke-width="2" d="M243.25,-719.7C243.14,-711.98 243.01,-702.71 242.89,-694.11"/>
<polygon fill="grey" stroke="grey" stroke-width="2" points="246.39,-694.05 242.74,-684.1 239.39,-694.15 246.39,-694.05"/>
</g>
<!-- 12&#45;&gt;14 -->
<g id="edge27" class="edge">
<title>12&#45;&gt;14</title>
<path fill="none" stroke="grey" stroke-width="2" d="M224.29,-719.79C213.73,-709.86 200.73,-696.82 190.5,-684 174.6,-664.07 159.38,-639.4 148.83,-621.09"/>
<polygon fill="grey" stroke="grey" stroke-width="2" points="151.74,-619.13 143.76,-612.15 145.65,-622.58 151.74,-619.13"/>
</g>
<!-- 13&#45;&gt;0 -->
<g id="edge2" class="edge">
<title>13&#45;&gt;0</title>
<path fill="none" stroke="grey" stroke-width="2" d="M285.5,-661.17C400.87,-649.73 708.5,-610.96 708.5,-523 708.5,-523 708.5,-523 708.5,-161 708.5,-97.07 653.72,-98.41 595.5,-72 512.68,-34.44 404.71,-23.5 348.76,-20.31"/>
<polygon fill="grey" stroke="grey" stroke-width="2" points="348.78,-16.81 338.62,-19.78 348.42,-23.8 348.78,-16.81"/>
</g>
<!-- 13&#45;&gt;14 -->
<g id="edge28" class="edge">
<title>13&#45;&gt;14</title>
<path fill="none" stroke="grey" stroke-width="2" d="M216.08,-647.88C202.09,-638.81 184.72,-627.55 169.61,-617.76"/>
<polygon fill="grey" stroke="grey" stroke-width="2" points="171.32,-614.69 161.02,-612.19 167.51,-620.57 171.32,-614.69"/>
</g>
<!-- 15 -->
<g id="node16" class="node">
<title>15</title>
<path fill="none" stroke="#56d892" stroke-width="2" d="M378,-612C378,-612 285,-612 285,-612 279,-612 273,-606 273,-600 273,-600 273,-588 273,-588 273,-582 279,-576 285,-576 285,-576 378,-576 378,-576 384,-576 390,-582 390,-588 390,-588 390,-600 390,-600 390,-606 384,-612 378,-612"/>
<text text-anchor="middle" x="331.5" y="-591.5" font-family="sans" font-size="10.00">prepare_for_mageck</text>
</g>
<!-- 13&#45;&gt;15 -->
<g id="edge30" class="edge">
<title>13&#45;&gt;15</title>
<path fill="none" stroke="grey" stroke-width="2" d="M264.5,-647.7C275.71,-638.88 289.5,-628.03 301.65,-618.47"/>
<polygon fill="grey" stroke="grey" stroke-width="2" points="304.06,-621.04 309.75,-612.1 299.73,-615.54 304.06,-621.04"/>
</g>
<!-- 23 -->
<g id="node24" class="node">
<title>23</title>
<path fill="none" stroke="#567bd8" stroke-width="2" d="M234.5,-468C234.5,-468 104.5,-468 104.5,-468 98.5,-468 92.5,-462 92.5,-456 92.5,-456 92.5,-444 92.5,-444 92.5,-438 98.5,-432 104.5,-432 104.5,-432 234.5,-432 234.5,-432 240.5,-432 246.5,-438 246.5,-444 246.5,-444 246.5,-456 246.5,-456 246.5,-462 240.5,-468 234.5,-468"/>
<text text-anchor="middle" x="169.5" y="-447.5" font-family="sans" font-size="10.00">symlinks_for_sorted_results</text>
</g>
<!-- 13&#45;&gt;23 -->
<g id="edge45" class="edge">
<title>13&#45;&gt;23</title>
<path fill="none" stroke="grey" stroke-width="2" d="M238.17,-647.8C233.52,-629.76 225.68,-600.68 217.5,-576 206.12,-541.67 190.84,-502.91 180.61,-477.77"/>
<polygon fill="grey" stroke="grey" stroke-width="2" points="183.72,-476.13 176.69,-468.21 177.24,-478.79 183.72,-476.13"/>
</g>
<!-- 14&#45;&gt;0 -->
<g id="edge3" class="edge">
<title>14&#45;&gt;0</title>
<path fill="none" stroke="grey" stroke-width="2" d="M119.65,-575.97C99.11,-550.58 64.5,-500.47 64.5,-451 64.5,-451 64.5,-451 64.5,-161 64.5,-115.41 79.41,-99.85 115.5,-72 162.19,-35.97 231.58,-24.39 274.05,-20.7"/>
<polygon fill="grey" stroke="grey" stroke-width="2" points="274.53,-24.17 284.23,-19.92 273.99,-17.2 274.53,-24.17"/>
</g>
<!-- 14&#45;&gt;23 -->
<g id="edge46" class="edge">
<title>14&#45;&gt;23</title>
<path fill="none" stroke="grey" stroke-width="2" d="M138.72,-575.87C144.71,-551.56 155.74,-506.82 162.84,-478.01"/>
<polygon fill="grey" stroke="grey" stroke-width="2" points="166.27,-478.74 165.26,-468.19 159.47,-477.06 166.27,-478.74"/>
</g>
<!-- 15&#45;&gt;0 -->
<g id="edge7" class="edge">
<title>15&#45;&gt;0</title>
<path fill="none" stroke="grey" stroke-width="2" d="M390.16,-593.67C487.19,-591.36 670.5,-571.12 670.5,-451 670.5,-451 670.5,-451 670.5,-161 670.5,-92.35 440.62,-42.64 348.76,-25.52"/>
<polygon fill="grey" stroke="grey" stroke-width="2" points="349.25,-22.05 338.78,-23.68 347.98,-28.93 349.25,-22.05"/>
</g>
<!-- 17 -->
<g id="node18" class="node">
<title>17</title>
<path fill="none" stroke="#56d0d8" stroke-width="2" d="M364.5,-540C364.5,-540 314.5,-540 314.5,-540 308.5,-540 302.5,-534 302.5,-528 302.5,-528 302.5,-516 302.5,-516 302.5,-510 308.5,-504 314.5,-504 314.5,-504 364.5,-504 364.5,-504 370.5,-504 376.5,-510 376.5,-516 376.5,-516 376.5,-528 376.5,-528 376.5,-534 370.5,-540 364.5,-540"/>
<text text-anchor="middle" x="339.5" y="-519.5" font-family="sans" font-size="10.00">mageck_rra</text>
</g>
<!-- 15&#45;&gt;17 -->
<g id="edge32" class="edge">
<title>15&#45;&gt;17</title>
<path fill="none" stroke="grey" stroke-width="2" d="M333.48,-575.7C334.36,-567.98 335.42,-558.71 336.4,-550.11"/>
<polygon fill="grey" stroke="grey" stroke-width="2" points="339.89,-550.44 337.55,-540.1 332.93,-549.64 339.89,-550.44"/>
</g>
<!-- 18 -->
<g id="node19" class="node">
<title>18</title>
<path fill="none" stroke="#a7d856" stroke-width="2" d="M277.5,-396C277.5,-396 197.5,-396 197.5,-396 191.5,-396 185.5,-390 185.5,-384 185.5,-384 185.5,-372 185.5,-372 185.5,-366 191.5,-360 197.5,-360 197.5,-360 277.5,-360 277.5,-360 283.5,-360 289.5,-366 289.5,-372 289.5,-372 289.5,-384 289.5,-384 289.5,-390 283.5,-396 277.5,-396"/>
<text text-anchor="middle" x="237.5" y="-375.5" font-family="sans" font-size="10.00">cat_non_essential</text>
</g>
<!-- 15&#45;&gt;18 -->
<g id="edge33" class="edge">
<title>15&#45;&gt;18</title>
<path fill="none" stroke="grey" stroke-width="2" d="M317.14,-575.68C309.38,-565.7 300.07,-552.66 293.5,-540 290.3,-533.83 261.64,-450.01 246.61,-405.83"/>
<polygon fill="grey" stroke="grey" stroke-width="2" points="249.9,-404.63 243.36,-396.28 243.27,-406.88 249.9,-404.63"/>
</g>
<!-- 16 -->
<g id="node17" class="node">
<title>16</title>
<path fill="none" stroke="#68d856" stroke-width="2" d="M470,-468C470,-468 353,-468 353,-468 347,-468 341,-462 341,-456 341,-456 341,-444 341,-444 341,-438 347,-432 353,-432 353,-432 470,-432 470,-432 476,-432 482,-438 482,-444 482,-444 482,-456 482,-456 482,-462 476,-468 470,-468"/>
<text text-anchor="middle" x="411.5" y="-447.5" font-family="sans" font-size="10.00">combine_bowtie_mageck</text>
</g>
<!-- 16&#45;&gt;0 -->
<g id="edge5" class="edge">
<title>16&#45;&gt;0</title>
<path fill="none" stroke="grey" stroke-width="2" d="M447.3,-431.96C516.23,-396.58 656.83,-310.57 612.5,-216 561.57,-107.35 417.54,-50.82 348.84,-29.38"/>
<polygon fill="grey" stroke="grey" stroke-width="2" points="349.47,-25.91 338.88,-26.35 347.43,-32.61 349.47,-25.91"/>
</g>
<!-- 16&#45;&gt;18 -->
<g id="edge35" class="edge">
<title>16&#45;&gt;18</title>
<path fill="none" stroke="grey" stroke-width="2" d="M368.93,-431.88C344.94,-422.22 314.77,-410.09 289.4,-399.88"/>
<polygon fill="grey" stroke="grey" stroke-width="2" points="290.51,-396.55 279.93,-396.07 287.9,-403.05 290.51,-396.55"/>
</g>
<!-- 19 -->
<g id="node20" class="node">
<title>19</title>
<path fill="none" stroke="#56d8a9" stroke-width="2" d="M393.5,-324C393.5,-324 319.5,-324 319.5,-324 313.5,-324 307.5,-318 307.5,-312 307.5,-312 307.5,-300 307.5,-300 307.5,-294 313.5,-288 319.5,-288 319.5,-288 393.5,-288 393.5,-288 399.5,-288 405.5,-294 405.5,-300 405.5,-300 405.5,-312 405.5,-312 405.5,-318 399.5,-324 393.5,-324"/>
<text text-anchor="middle" x="356.5" y="-303.5" font-family="sans" font-size="10.00">summary_tables</text>
</g>
<!-- 16&#45;&gt;19 -->
<g id="edge37" class="edge">
<title>16&#45;&gt;19</title>
<path fill="none" stroke="grey" stroke-width="2" d="M404.87,-431.87C395.41,-407.46 377.97,-362.43 366.82,-333.64"/>
<polygon fill="grey" stroke="grey" stroke-width="2" points="370.03,-332.25 363.16,-324.19 363.51,-334.78 370.03,-332.25"/>
</g>
<!-- 20 -->
<g id="node21" class="node">
<title>20</title>
<path fill="none" stroke="#d86e56" stroke-width="2" d="M307.5,-252C307.5,-252 239.5,-252 239.5,-252 233.5,-252 227.5,-246 227.5,-240 227.5,-240 227.5,-228 227.5,-228 227.5,-222 233.5,-216 239.5,-216 239.5,-216 307.5,-216 307.5,-216 313.5,-216 319.5,-222 319.5,-228 319.5,-228 319.5,-240 319.5,-240 319.5,-246 313.5,-252 307.5,-252"/>
<text text-anchor="middle" x="273.5" y="-231.5" font-family="sans" font-size="10.00">find_transcripts</text>
</g>
<!-- 16&#45;&gt;20 -->
<g id="edge39" class="edge">
<title>16&#45;&gt;20</title>
<path fill="none" stroke="grey" stroke-width="2" d="M390.84,-431.69C365.47,-409.34 322.82,-368.05 298.5,-324 287.87,-304.74 281.45,-280.58 277.79,-262.3"/>
<polygon fill="grey" stroke="grey" stroke-width="2" points="281.2,-261.49 275.94,-252.29 274.31,-262.76 281.2,-261.49"/>
</g>
<!-- 22 -->
<g id="node23" class="node">
<title>22</title>
<path fill="none" stroke="#d89556" stroke-width="2" d="M354.5,-108C354.5,-108 268.5,-108 268.5,-108 262.5,-108 256.5,-102 256.5,-96 256.5,-96 256.5,-84 256.5,-84 256.5,-78 262.5,-72 268.5,-72 268.5,-72 354.5,-72 354.5,-72 360.5,-72 366.5,-78 366.5,-84 366.5,-84 366.5,-96 366.5,-96 366.5,-102 360.5,-108 354.5,-108"/>
<text text-anchor="middle" x="311.5" y="-87.5" font-family="sans" font-size="10.00">plot_region_details</text>
</g>
<!-- 16&#45;&gt;22 -->
<g id="edge43" class="edge">
<title>16&#45;&gt;22</title>
<path fill="none" stroke="grey" stroke-width="2" d="M414.14,-431.88C418.19,-402.24 424.5,-339.6 414.5,-288 401.37,-220.26 392.18,-203.06 356.5,-144 350.54,-134.13 342.77,-124.26 335.36,-115.74"/>
<polygon fill="grey" stroke="grey" stroke-width="2" points="337.73,-113.15 328.44,-108.05 332.53,-117.83 337.73,-113.15"/>
</g>
<!-- 17&#45;&gt;16 -->
<g id="edge31" class="edge">
<title>17&#45;&gt;16</title>
<path fill="none" stroke="grey" stroke-width="2" d="M357.3,-503.7C366.1,-495.14 376.88,-484.66 386.5,-475.3"/>
<polygon fill="grey" stroke="grey" stroke-width="2" points="389.18,-477.58 393.91,-468.1 384.3,-472.57 389.18,-477.58"/>
</g>
<!-- 17&#45;&gt;18 -->
<g id="edge34" class="edge">
<title>17&#45;&gt;18</title>
<path fill="none" stroke="grey" stroke-width="2" d="M331.26,-503.83C322.02,-485.32 306.02,-455.37 288.5,-432 281.04,-422.04 271.86,-411.99 263.37,-403.35"/>
<polygon fill="grey" stroke="grey" stroke-width="2" points="265.69,-400.73 256.13,-396.16 260.76,-405.69 265.69,-400.73"/>
</g>
<!-- 17&#45;&gt;23 -->
<g id="edge44" class="edge">
<title>17&#45;&gt;23</title>
<path fill="none" stroke="grey" stroke-width="2" d="M302.19,-505.64C278.17,-495.75 246.63,-482.76 220.32,-471.93"/>
<polygon fill="grey" stroke="grey" stroke-width="2" points="221.47,-468.62 210.89,-468.04 218.81,-475.09 221.47,-468.62"/>
</g>
<!-- 24 -->
<g id="node25" class="node">
<title>24</title>
<path fill="none" stroke="#d8bc56" stroke-width="2" d="M592,-252C592,-252 473,-252 473,-252 467,-252 461,-246 461,-240 461,-240 461,-228 461,-228 461,-222 467,-216 473,-216 473,-216 592,-216 592,-216 598,-216 604,-222 604,-228 604,-228 604,-240 604,-240 604,-246 598,-252 592,-252"/>
<text text-anchor="middle" x="532.5" y="-231.5" font-family="sans" font-size="10.00">summary_table_overview</text>
</g>
<!-- 17&#45;&gt;24 -->
<g id="edge47" class="edge">
<title>17&#45;&gt;24</title>
<path fill="none" stroke="grey" stroke-width="2" d="M376.76,-518.29C411.5,-513.69 462.12,-501.3 490.5,-468 540.96,-408.79 539.77,-309.78 535.71,-262.18"/>
<polygon fill="grey" stroke="grey" stroke-width="2" points="539.18,-261.65 534.74,-252.04 532.21,-262.32 539.18,-261.65"/>
</g>
<!-- 18&#45;&gt;0 -->
<g id="edge6" class="edge">
<title>18&#45;&gt;0</title>
<path fill="none" stroke="grey" stroke-width="2" d="M215.49,-359.88C186.87,-335.5 140.5,-287.84 140.5,-235 140.5,-235 140.5,-235 140.5,-161 140.5,-91.72 224.6,-49.77 274.84,-30.9"/>
<polygon fill="grey" stroke="grey" stroke-width="2" points="276.2,-34.13 284.4,-27.43 273.81,-27.55 276.2,-34.13"/>
</g>
<!-- 18&#45;&gt;19 -->
<g id="edge36" class="edge">
<title>18&#45;&gt;19</title>
<path fill="none" stroke="grey" stroke-width="2" d="M266.61,-359.88C282.17,-350.72 301.52,-339.34 318.28,-329.48"/>
<polygon fill="grey" stroke="grey" stroke-width="2" points="320.43,-332.28 327.28,-324.19 316.88,-326.24 320.43,-332.28"/>
</g>
<!-- 19&#45;&gt;0 -->
<g id="edge8" class="edge">
<title>19&#45;&gt;0</title>
<path fill="none" stroke="grey" stroke-width="2" d="M363.45,-287.88C378.55,-247.86 410.3,-146.01 375.5,-72 369.32,-58.87 358.12,-47.87 346.8,-39.36"/>
<polygon fill="grey" stroke="grey" stroke-width="2" points="348.79,-36.49 338.6,-33.61 344.77,-42.22 348.79,-36.49"/>
</g>
<!-- 19&#45;&gt;20 -->
<g id="edge38" class="edge">
<title>19&#45;&gt;20</title>
<path fill="none" stroke="grey" stroke-width="2" d="M335.98,-287.7C325.63,-278.97 312.91,-268.24 301.66,-258.75"/>
<polygon fill="grey" stroke="grey" stroke-width="2" points="303.68,-255.88 293.78,-252.1 299.17,-261.23 303.68,-255.88"/>
</g>
<!-- 19&#45;&gt;22 -->
<g id="edge42" class="edge">
<title>19&#45;&gt;22</title>
<path fill="none" stroke="grey" stroke-width="2" d="M356.36,-287.7C355.7,-257.79 352.47,-194.75 337.5,-144 334.8,-134.86 330.64,-125.36 326.42,-116.98"/>
<polygon fill="grey" stroke="grey" stroke-width="2" points="329.48,-115.27 321.72,-108.06 323.29,-118.54 329.48,-115.27"/>
</g>
<!-- 19&#45;&gt;24 -->
<g id="edge48" class="edge">
<title>19&#45;&gt;24</title>
<path fill="none" stroke="grey" stroke-width="2" d="M399.55,-287.88C423.83,-278.22 454.34,-266.09 480.01,-255.88"/>
<polygon fill="grey" stroke="grey" stroke-width="2" points="481.59,-259.02 489.59,-252.07 479,-252.51 481.59,-259.02"/>
</g>
<!-- 20&#45;&gt;0 -->
<g id="edge9" class="edge">
<title>20&#45;&gt;0</title>
<path fill="none" stroke="grey" stroke-width="2" d="M234.72,-215.78C220.32,-207.24 205.54,-195.4 197.5,-180 190.1,-165.81 193.32,-159.45 197.5,-144 207.17,-108.24 214.74,-99.55 239.5,-72 250.04,-60.28 263.55,-49.51 276.01,-40.79"/>
<polygon fill="grey" stroke="grey" stroke-width="2" points="278.11,-43.6 284.42,-35.1 274.18,-37.81 278.11,-43.6"/>
</g>
<!-- 21 -->
<g id="node22" class="node">
<title>21</title>
<path fill="none" stroke="#d87d56" stroke-width="2" d="M316.5,-180C316.5,-180 218.5,-180 218.5,-180 212.5,-180 206.5,-174 206.5,-168 206.5,-168 206.5,-156 206.5,-156 206.5,-150 212.5,-144 218.5,-144 218.5,-144 316.5,-144 316.5,-144 322.5,-144 328.5,-150 328.5,-156 328.5,-156 328.5,-168 328.5,-168 328.5,-174 322.5,-180 316.5,-180"/>
<text text-anchor="middle" x="267.5" y="-159.5" font-family="sans" font-size="10.00">normalise_transcripts</text>
</g>
<!-- 20&#45;&gt;21 -->
<g id="edge40" class="edge">
<title>20&#45;&gt;21</title>
<path fill="none" stroke="grey" stroke-width="2" d="M272.02,-215.7C271.36,-207.98 270.56,-198.71 269.82,-190.11"/>
<polygon fill="grey" stroke="grey" stroke-width="2" points="273.31,-189.77 268.97,-180.1 266.33,-190.37 273.31,-189.77"/>
</g>
<!-- 21&#45;&gt;0 -->
<g id="edge11" class="edge">
<title>21&#45;&gt;0</title>
<path fill="none" stroke="grey" stroke-width="2" d="M257.33,-143.88C247.76,-125.42 236.45,-95.5 247.5,-72 253.68,-58.87 264.88,-47.87 276.2,-39.36"/>
<polygon fill="grey" stroke="grey" stroke-width="2" points="278.23,-42.22 284.4,-33.61 274.21,-36.49 278.23,-42.22"/>
</g>
<!-- 21&#45;&gt;22 -->
<g id="edge41" class="edge">
<title>21&#45;&gt;22</title>
<path fill="none" stroke="grey" stroke-width="2" d="M278.38,-143.7C283.49,-135.56 289.7,-125.69 295.34,-116.7"/>
<polygon fill="grey" stroke="grey" stroke-width="2" points="298.39,-118.43 300.75,-108.1 292.46,-114.71 298.39,-118.43"/>
</g>
<!-- 22&#45;&gt;0 -->
<g id="edge13" class="edge">
<title>22&#45;&gt;0</title>
<path fill="none" stroke="grey" stroke-width="2" d="M311.5,-71.7C311.5,-63.98 311.5,-54.71 311.5,-46.11"/>
<polygon fill="grey" stroke="grey" stroke-width="2" points="315,-46.1 311.5,-36.1 308,-46.1 315,-46.1"/>
</g>
<!-- 23&#45;&gt;0 -->
<g id="edge10" class="edge">
<title>23&#45;&gt;0</title>
<path fill="none" stroke="grey" stroke-width="2" d="M155.29,-431.86C135.62,-406.34 102.5,-356.07 102.5,-307 102.5,-307 102.5,-307 102.5,-161 102.5,-114.27 121.91,-101.07 158.5,-72 192.36,-45.1 240.78,-31.39 274.03,-24.73"/>
<polygon fill="grey" stroke="grey" stroke-width="2" points="275.08,-28.1 284.26,-22.81 273.78,-21.22 275.08,-28.1"/>
</g>
<!-- 24&#45;&gt;0 -->
<g id="edge1" class="edge">
<title>24&#45;&gt;0</title>
<path fill="none" stroke="grey" stroke-width="2" d="M522.63,-215.85C503.77,-184.21 459.86,-115.9 408.5,-72 390.45,-56.57 367.18,-43.67 347.96,-34.47"/>
<polygon fill="grey" stroke="grey" stroke-width="2" points="349.44,-31.29 338.89,-30.25 346.48,-37.64 349.44,-31.29"/>
</g>
</g>
</svg>
